<svg width="290" height="61" viewBox="0 0 290 61" fill="none" xmlns="http://www.w3.org/2000/svg">
<path d="M99.3342 19.194V52H92.7542V30.662L83.9652 52H78.9832L70.1472 30.662V52H63.5672V19.194H71.0402L81.4742 43.587L91.9082 19.194H99.3342ZM130.045 38.417C130.045 39.357 129.982 40.203 129.857 40.955H110.822C110.978 42.835 111.636 44.3077 112.796 45.373C113.955 46.4383 115.381 46.971 117.073 46.971C119.517 46.971 121.256 45.9213 122.29 43.822H129.387C128.635 46.3287 127.193 48.3967 125.063 50.026C122.932 51.624 120.316 52.423 117.214 52.423C114.707 52.423 112.451 51.8747 110.446 50.778C108.472 49.65 106.921 48.0677 105.793 46.031C104.696 43.9943 104.148 41.6443 104.148 38.981C104.148 36.2863 104.696 33.9207 105.793 31.884C106.889 29.8473 108.425 28.2807 110.399 27.184C112.373 26.0873 114.644 25.539 117.214 25.539C119.689 25.539 121.898 26.0717 123.841 27.137C125.815 28.2023 127.334 29.722 128.4 31.696C129.496 33.6387 130.045 35.879 130.045 38.417ZM123.23 36.537C123.198 34.845 122.587 33.4977 121.397 32.495C120.206 31.461 118.749 30.944 117.026 30.944C115.396 30.944 114.018 31.4453 112.89 32.448C111.793 33.4193 111.119 34.7823 110.869 36.537H123.23ZM133.155 38.887C133.155 36.255 133.672 33.9207 134.706 31.884C135.772 29.8473 137.213 28.2807 139.03 27.184C140.848 26.0873 142.869 25.539 145.093 25.539C146.785 25.539 148.399 25.915 149.934 26.667C151.47 27.3877 152.692 28.359 153.6 29.581V17.22H160.274V52H153.6V48.146C152.786 49.4307 151.642 50.4647 150.169 51.248C148.697 52.0313 146.989 52.423 145.046 52.423C142.853 52.423 140.848 51.859 139.03 50.731C137.213 49.603 135.772 48.0207 134.706 45.984C133.672 43.916 133.155 41.5503 133.155 38.887ZM153.647 38.981C153.647 37.383 153.334 36.02 152.707 34.892C152.081 33.7327 151.235 32.8553 150.169 32.26C149.104 31.6333 147.96 31.32 146.738 31.32C145.516 31.32 144.388 31.6177 143.354 32.213C142.32 32.8083 141.474 33.6857 140.816 34.845C140.19 35.973 139.876 37.3203 139.876 38.887C139.876 40.4537 140.19 41.8323 140.816 43.023C141.474 44.1823 142.32 45.0753 143.354 45.702C144.42 46.3287 145.548 46.642 146.738 46.642C147.96 46.642 149.104 46.3443 150.169 45.749C151.235 45.1223 152.081 44.245 152.707 43.117C153.334 41.9577 153.647 40.579 153.647 38.981ZM170.038 22.86C168.879 22.86 167.907 22.4997 167.124 21.779C166.372 21.027 165.996 20.1027 165.996 19.006C165.996 17.9093 166.372 17.0007 167.124 16.28C167.907 15.528 168.879 15.152 170.038 15.152C171.197 15.152 172.153 15.528 172.905 16.28C173.688 17.0007 174.08 17.9093 174.08 19.006C174.08 20.1027 173.688 21.027 172.905 21.779C172.153 22.4997 171.197 22.86 170.038 22.86ZM173.281 25.962V52H166.701V25.962H173.281ZM178.09 38.981C178.09 36.2863 178.638 33.9363 179.735 31.931C180.832 29.8943 182.351 28.3277 184.294 27.231C186.237 26.103 188.461 25.539 190.968 25.539C194.195 25.539 196.859 26.3537 198.958 27.983C201.089 29.581 202.514 31.837 203.235 34.751H196.138C195.762 33.623 195.12 32.7457 194.211 32.119C193.334 31.461 192.237 31.132 190.921 31.132C189.041 31.132 187.553 31.8213 186.456 33.2C185.359 34.5473 184.811 36.4743 184.811 38.981C184.811 41.4563 185.359 43.3833 186.456 44.762C187.553 46.1093 189.041 46.783 190.921 46.783C193.584 46.783 195.323 45.5923 196.138 43.211H203.235C202.514 46.031 201.089 48.2713 198.958 49.932C196.827 51.5927 194.164 52.423 190.968 52.423C188.461 52.423 186.237 51.8747 184.294 50.778C182.351 49.65 180.832 48.0833 179.735 46.078C178.638 44.0413 178.09 41.6757 178.09 38.981ZM206.363 38.887C206.363 36.255 206.88 33.9207 207.914 31.884C208.98 29.8473 210.406 28.2807 212.192 27.184C214.009 26.0873 216.03 25.539 218.255 25.539C220.197 25.539 221.889 25.9307 223.331 26.714C224.803 27.4973 225.978 28.4843 226.856 29.675V25.962H233.483V52H226.856V48.193C226.01 49.415 224.835 50.4333 223.331 51.248C221.858 52.0313 220.15 52.423 218.208 52.423C216.014 52.423 214.009 51.859 212.192 50.731C210.406 49.603 208.98 48.0207 207.914 45.984C206.88 43.916 206.363 41.5503 206.363 38.887ZM226.856 38.981C226.856 37.383 226.542 36.02 225.916 34.892C225.289 33.7327 224.443 32.8553 223.378 32.26C222.312 31.6333 221.169 31.32 219.947 31.32C218.725 31.32 217.597 31.6177 216.562 32.213C215.529 32.8083 214.683 33.6857 214.025 34.845C213.398 35.973 213.085 37.3203 213.085 38.887C213.085 40.4537 213.398 41.8323 214.025 43.023C214.683 44.1823 215.529 45.0753 216.562 45.702C217.628 46.3287 218.756 46.642 219.947 46.642C221.169 46.642 222.312 46.3443 223.378 45.749C224.443 45.1223 225.289 44.245 225.916 43.117C226.542 41.9577 226.856 40.579 226.856 38.981ZM246.489 30.004C247.335 28.6253 248.432 27.5443 249.779 26.761C251.158 25.9777 252.724 25.586 254.479 25.586V32.495H252.74C250.672 32.495 249.105 32.9807 248.04 33.952C247.006 34.9233 246.489 36.6153 246.489 39.028V52H239.909V25.962H246.489V30.004ZM283.116 38.417C283.116 39.357 283.053 40.203 282.928 40.955H263.893C264.05 42.835 264.708 44.3077 265.867 45.373C267.026 46.4383 268.452 46.971 270.144 46.971C272.588 46.971 274.327 45.9213 275.361 43.822H282.458C281.706 46.3287 280.265 48.3967 278.134 50.026C276.003 51.624 273.387 52.423 270.285 52.423C267.778 52.423 265.522 51.8747 263.517 50.778C261.543 49.65 259.992 48.0677 258.864 46.031C257.767 43.9943 257.219 41.6443 257.219 38.981C257.219 36.2863 257.767 33.9207 258.864 31.884C259.961 29.8473 261.496 28.2807 263.47 27.184C265.444 26.0873 267.716 25.539 270.285 25.539C272.76 25.539 274.969 26.0717 276.912 27.137C278.886 28.2023 280.406 29.722 281.471 31.696C282.568 33.6387 283.116 35.879 283.116 38.417ZM276.301 36.537C276.27 34.845 275.659 33.4977 274.468 32.495C273.277 31.461 271.82 30.944 270.097 30.944C268.468 30.944 267.089 31.4453 265.961 32.448C264.864 33.4193 264.191 34.7823 263.94 36.537H276.301Z" fill="black"/>
<rect x="16.8029" y="10" width="18" height="51" rx="7" fill="#0019FF"/>
<rect y="44.0792" width="18.5839" height="50.8613" rx="7" transform="rotate(-89.3692 0 44.0792)" fill="#0019FF"/>
</svg>
